<?xml version="1.0" encoding="utf-8"?>
<!-- Generator: Adobe Illustrator 27.4.1, SVG Export Plug-In . SVG Version: 6.00 Build 0)  -->
<svg version="1.1" id="Layer_1" xmlns="http://www.w3.org/2000/svg" xmlns:xlink="http://www.w3.org/1999/xlink" x="0px" y="0px"
	 viewBox="0 0 655.8 209" style="enable-background:new 0 0 655.8 209;" xml:space="preserve">
<style type="text/css">
	.st0{clip-path:url(#SVGID_00000137095072703822498540000006526623445163703991_);}
	.st1{clip-path:url(#SVGID_00000011710812634538991110000011739934453490880444_);}
	.st2{clip-path:url(#SVGID_00000013894924725182761160000001018809199202906789_);}
	.st3{clip-path:url(#SVGID_00000051351828132058924560000004450194709552716469_);}
	.st4{fill:#007FFF;}
	.st5{fill:url(#SVGID_00000018923832383253151610000013238076639708403587_);}
	.st6{fill:url(#SVGID_00000120548265275695465020000017349520056080288678_);}
	.st7{fill:url(#SVGID_00000108999066923960440280000007067025885548155272_);}
	.st8{fill:url(#SVGID_00000109729644854586789400000011859980279162475686_);}
	.st9{fill:url(#SVGID_00000093861401648886119730000003449138213658354331_);}
	.st10{fill:url(#SVGID_00000003783624709925416400000015337500919313852810_);}
	.st11{fill:url(#SVGID_00000052794058089829615290000012643367362851452566_);}
	.st12{fill:url(#SVGID_00000088848996573651521350000012724787753169367189_);}
	.st13{fill:url(#SVGID_00000102533926281164317120000006519023415681923258_);}
	.st14{fill:url(#SVGID_00000141418482966392453620000000591020382372968361_);}
</style>
<g>
	<g>
		<g>
			<g>
				<g>
					<defs>
						<path id="SVGID_1_" d="M76,209H0l0-73.3c0.2-2.2,0.5-4.3,0.9-6.4c0.1-0.3,0.1-0.7,0.2-1c6.3-31.4,34.2-54.2,66.3-54.2
							c37.3,0,67.7,30.4,67.7,67.7c0,32.3-22.9,60.2-54.5,66.4c-0.2,0.1-0.5,0.1-0.7,0.1c-1.2,0.2-2.2,0.4-3.3,0.5L76,209z
							 M19.3,189.6h55.4c0.6-0.1,1.1-0.2,1.7-0.3l0.4-0.1c22.7-4.5,39.1-24.4,39.1-47.5c0-26.7-21.7-48.4-48.4-48.4
							c-22.9,0-42.9,16.3-47.4,38.7l-0.1,0.7c-0.3,1.3-0.5,2.7-0.6,4.1V189.6z"/>
					</defs>
					<clipPath id="SVGID_00000063595072133213449870000011973021448286037922_">
						<use xlink:href="#SVGID_1_"  style="overflow:visible;"/>
					</clipPath>
					<g style="clip-path:url(#SVGID_00000063595072133213449870000011973021448286037922_);">
						<g>
							<defs>
								<rect id="SVGID_00000044864203104521150510000017858089902375255460_" x="-5" y="69.1" width="145.2" height="144.9"/>
							</defs>
							<clipPath id="SVGID_00000131366390618249292230000002685883843546465664_">
								<use xlink:href="#SVGID_00000044864203104521150510000017858089902375255460_"  style="overflow:visible;"/>
							</clipPath>
							<g style="clip-path:url(#SVGID_00000131366390618249292230000002685883843546465664_);">
								
									<image style="overflow:visible;" width="304" height="302" xlink:href="FFDC28F6.jpg"  transform="matrix(0.48 0 0 0.48 -5.3967 69.0774)">
								</image>
							</g>
						</g>
					</g>
				</g>
			</g>
		</g>
		<g>
			<g>
				<defs>
					<path id="SVGID_00000104702055678818859530000006103356869361154734_" d="M76,134.9H0l0-73.3c0.2-2.2,0.5-4.3,0.9-6.4
						c0.1-0.3,0.1-0.7,0.2-1C7.4,22.8,35.4,0,67.5,0c37.3,0,67.7,30.4,67.7,67.7c0,32.2-22.9,60.2-54.5,66.4
						c-0.2,0.1-0.5,0.1-0.7,0.1c-1.2,0.2-2.2,0.4-3.3,0.5L76,134.9z M19.3,115.5h55.4c0.6-0.1,1.1-0.2,1.7-0.3l0.4-0.1
						c22.7-4.5,39.1-24.4,39.1-47.5c0-26.7-21.7-48.4-48.4-48.4c-22.9,0-42.9,16.3-47.4,38.7l-0.1,0.7c-0.3,1.3-0.5,2.7-0.6,4.1
						V115.5z"/>
				</defs>
				<clipPath id="SVGID_00000034065405648235736770000009280562993854198436_">
					<use xlink:href="#SVGID_00000104702055678818859530000006103356869361154734_"  style="overflow:visible;"/>
				</clipPath>
				<g style="clip-path:url(#SVGID_00000034065405648235736770000009280562993854198436_);">
					<g>
						<defs>
							<rect id="SVGID_00000165197855545937613480000011530447358385168782_" x="-5" y="-5" width="145.2" height="144.9"/>
						</defs>
						<clipPath id="SVGID_00000158735069392507930560000006598521542440201361_">
							<use xlink:href="#SVGID_00000165197855545937613480000011530447358385168782_"  style="overflow:visible;"/>
						</clipPath>
						<g style="clip-path:url(#SVGID_00000158735069392507930560000006598521542440201361_);">
							
								<image style="overflow:visible;" width="304" height="303" xlink:href="FFDC28FA.jpg"  transform="matrix(0.48 0 0 0.48 -5.3967 -5.3226)">
							</image>
						</g>
					</g>
				</g>
			</g>
		</g>
		<g>
			<defs>
				<path id="SVGID_00000020391292566811265600000006519995312961601686_" d="M-7,67.1V216h149.2V67.1H-7z M140.2,118
					c-9.5,9-19.6,13.9-28.4,13.9c0,0,0,0,0,0c-9.2,0-16.8-5-22.8-15c-5.6-9.3-6.5-19.7-2.3-27.8c3.6-7.1,10.7-11.5,19.4-12.2
					c1.7-0.1,3.4-0.2,5.1-0.2c9.9,0,19.9,2.3,29,6.7V118z"/>
			</defs>
			<clipPath id="SVGID_00000096739084324262676280000018091899917872997042_">
				<use xlink:href="#SVGID_00000020391292566811265600000006519995312961601686_"  style="overflow:visible;"/>
			</clipPath>
			<g style="clip-path:url(#SVGID_00000096739084324262676280000018091899917872997042_);">
				<g>
					<defs>
						<path id="SVGID_00000067920368199132787220000016615640743001737893_" d="M76,209H0l0-73.3c0.2-2.2,0.5-4.3,0.9-6.4
							c0.1-0.3,0.1-0.7,0.2-1c6.3-31.4,34.2-54.2,66.3-54.2c37.3,0,67.7,30.4,67.7,67.7c0,32.3-22.9,60.2-54.5,66.4
							c-0.2,0.1-0.5,0.1-0.7,0.1c-1.2,0.2-2.2,0.4-3.3,0.5L76,209z M19.3,189.6h55.4c0.6-0.1,1.1-0.2,1.7-0.3l0.4-0.1
							c22.7-4.5,39.1-24.4,39.1-47.5c0-26.7-21.7-48.4-48.4-48.4c-22.9,0-42.9,16.3-47.4,38.7l-0.1,0.7c-0.3,1.3-0.5,2.7-0.6,4.1
							V189.6z"/>
					</defs>
					<clipPath id="SVGID_00000124142640306791460180000003621911491021990334_">
						<use xlink:href="#SVGID_00000067920368199132787220000016615640743001737893_"  style="overflow:visible;"/>
					</clipPath>
					<g style="clip-path:url(#SVGID_00000124142640306791460180000003621911491021990334_);">
						<g>
							<defs>
								<rect id="SVGID_00000083804008746554618130000014290473773446910378_" x="-5" y="69.1" width="145.2" height="144.9"/>
							</defs>
							<clipPath id="SVGID_00000142864025578571097540000016816244561725337486_">
								<use xlink:href="#SVGID_00000083804008746554618130000014290473773446910378_"  style="overflow:visible;"/>
							</clipPath>
							<g style="clip-path:url(#SVGID_00000142864025578571097540000016816244561725337486_);">
								
									<image style="overflow:visible;" width="304" height="302" xlink:href="FFDC28FD.jpg"  transform="matrix(0.48 0 0 0.48 -5.3967 69.0774)">
								</image>
							</g>
						</g>
					</g>
				</g>
			</g>
		</g>
	</g>
	<g>
		<g>
			<path class="st4" d="M185.6,134.9V80.5h26.3c4,0,7.5,1.4,10.3,4.3c2.9,2.9,4.3,6.3,4.3,10.4v3c0,2.7-0.7,5.2-2.1,7.5
				c1.7,1.4,3,3.1,4,5.1c1,2,1.4,4.1,1.4,6.3v3c0,4-1.4,7.5-4.3,10.4c-2.9,2.9-6.3,4.3-10.3,4.3H185.6z M211.3,90.8h-13.6v11.7h13.6
				c0.9,0,1.6-0.3,2.3-0.9s0.9-1.4,0.9-2.3V94c0-0.9-0.3-1.6-0.9-2.3S212.2,90.8,211.3,90.8z M214.6,112.9h-17v11.7h17
				c0.9,0,1.6-0.3,2.3-0.9s0.9-1.4,0.9-2.3v-5.3c0-0.9-0.3-1.6-0.9-2.3S215.5,112.9,214.6,112.9z"/>
			<path class="st4" d="M235.6,95.2c0-4,1.4-7.5,4.3-10.4c2.9-2.9,6.3-4.3,10.4-4.3h29.5v10.3h-28.9c-0.9,0-1.6,0.3-2.3,0.9
				s-1,1.4-1,2.3v27.4c0,0.6,0.2,1.1,0.5,1.6c0.3,0.5,0.7,0.9,1.2,1.2c0.5,0.3,1,0.4,1.6,0.4h29v10.3h-29.6c-4,0-7.5-1.4-10.4-4.3
				c-2.9-2.9-4.3-6.3-4.3-10.4V95.2z M253.7,102.5h26.1v10.4h-26.1V102.5z"/>
			<path class="st4" d="M331.3,134.9h-22.1h-7.5c-4,0-7.5-1.4-10.4-4.3c-2.9-2.9-4.3-6.3-4.3-10.4V80.5h12.1v40.9
				c0,0.9,0.3,1.6,1,2.3c0.6,0.6,1.4,0.9,2.3,0.9h28.9V134.9z"/>
			<path class="st4" d="M348.1,134.9H336V80.5h12.1V134.9z"/>
		</g>
		<g>
			
				<linearGradient id="SVGID_00000053523751228791866950000014644060750898902671_" gradientUnits="userSpaceOnUse" x1="186.4366" y1="78.2805" x2="347.2516" y2="137.1464">
				<stop  offset="0" style="stop-color:#1AAED1"/>
				<stop  offset="1" style="stop-color:#1E54A6"/>
			</linearGradient>
			<path style="fill:url(#SVGID_00000053523751228791866950000014644060750898902671_);" d="M185.6,134.9V80.5h26.3
				c4,0,7.5,1.4,10.3,4.3c2.9,2.9,4.3,6.3,4.3,10.4v3c0,2.7-0.7,5.2-2.1,7.5c1.7,1.4,3,3.1,4,5.1c1,2,1.4,4.1,1.4,6.3v3
				c0,4-1.4,7.5-4.3,10.4c-2.9,2.9-6.3,4.3-10.3,4.3H185.6z M211.3,90.8h-13.6v11.7h13.6c0.9,0,1.6-0.3,2.3-0.9s0.9-1.4,0.9-2.3V94
				c0-0.9-0.3-1.6-0.9-2.3S212.2,90.8,211.3,90.8z M214.6,112.9h-17v11.7h17c0.9,0,1.6-0.3,2.3-0.9s0.9-1.4,0.9-2.3v-5.3
				c0-0.9-0.3-1.6-0.9-2.3S215.5,112.9,214.6,112.9z"/>
			
				<linearGradient id="SVGID_00000006672672725042923860000009689439037579834032_" gradientUnits="userSpaceOnUse" x1="186.4366" y1="78.2805" x2="347.2516" y2="137.1464">
				<stop  offset="0" style="stop-color:#1AAED1"/>
				<stop  offset="1" style="stop-color:#1E54A6"/>
			</linearGradient>
			<path style="fill:url(#SVGID_00000006672672725042923860000009689439037579834032_);" d="M235.6,95.2c0-4,1.4-7.5,4.3-10.4
				c2.9-2.9,6.3-4.3,10.4-4.3h29.5v10.3h-28.9c-0.9,0-1.6,0.3-2.3,0.9s-1,1.4-1,2.3v27.4c0,0.6,0.2,1.1,0.5,1.6
				c0.3,0.5,0.7,0.9,1.2,1.2c0.5,0.3,1,0.4,1.6,0.4h29v10.3h-29.6c-4,0-7.5-1.4-10.4-4.3c-2.9-2.9-4.3-6.3-4.3-10.4V95.2z
				 M253.7,102.5h26.1v10.4h-26.1V102.5z"/>
			
				<linearGradient id="SVGID_00000178193931878112937300000018124404343408009145_" gradientUnits="userSpaceOnUse" x1="186.4366" y1="78.2805" x2="347.2516" y2="137.1464">
				<stop  offset="0" style="stop-color:#1AAED1"/>
				<stop  offset="1" style="stop-color:#1E54A6"/>
			</linearGradient>
			<path style="fill:url(#SVGID_00000178193931878112937300000018124404343408009145_);" d="M331.3,134.9h-22.1h-7.5
				c-4,0-7.5-1.4-10.4-4.3c-2.9-2.9-4.3-6.3-4.3-10.4V80.5h12.1v40.9c0,0.9,0.3,1.6,1,2.3c0.6,0.6,1.4,0.9,2.3,0.9h28.9V134.9z"/>
			
				<linearGradient id="SVGID_00000039122306075894653510000000528633116637666711_" gradientUnits="userSpaceOnUse" x1="186.4366" y1="78.2805" x2="347.2516" y2="137.1464">
				<stop  offset="0" style="stop-color:#1AAED1"/>
				<stop  offset="1" style="stop-color:#1E54A6"/>
			</linearGradient>
			<path style="fill:url(#SVGID_00000039122306075894653510000000528633116637666711_);" d="M348.1,134.9H336V80.5h12.1V134.9z"/>
		</g>
	</g>
	<g>
		<g>
			<path class="st4" d="M357.9,80.5h44.2v10.3h-16.1v44.1H374V90.8h-16.1V80.5z"/>
			<path class="st4" d="M406.9,134.9V80.5h29.6c4,0,7.5,1.4,10.3,4.3c2.9,2.9,4.3,6.3,4.3,10.4v8.2c0,3.3-1,6.3-3.1,9
				c-2.1,2.7-4.7,4.4-7.9,5.2l11,17.3h-14.3l-10.9-16.9l-6.6-10.3h16.6c0.9,0,1.6-0.3,2.3-0.9s0.9-1.4,0.9-2.3V94
				c0-0.9-0.3-1.6-0.9-2.3s-1.4-0.9-2.3-0.9h-17v44.1H406.9z"/>
			<path class="st4" d="M483.5,80.5c1.7,0,3.2,0.5,4.5,1.4c1.3,0.9,2.3,2.2,2.8,3.7l17.7,49.3h-12.8l-14.5-40.4l-14.5,40.4h-12.8
				l17.7-49.3c0.6-1.6,1.5-2.8,2.9-3.7c1.3-0.9,2.8-1.4,4.4-1.4H483.5z M476.8,124.6h8.7l3.7,10.3h-16.1L476.8,124.6z"/>
			<path class="st4" d="M539.4,129.8c-0.5,1.6-1.5,2.8-2.8,3.7c-1.3,0.9-2.9,1.4-4.5,1.4h-4.7c-1.6,0-3.1-0.5-4.4-1.4
				c-1.3-0.9-2.3-2.2-2.9-3.7l-17.7-49.3h12.8l14.5,40.4l14.5-40.4h12.8L539.4,129.8z"/>
			<path class="st4" d="M559.7,95.2c0-4,1.4-7.5,4.3-10.4s6.3-4.3,10.4-4.3h29.5v10.3H575c-0.9,0-1.6,0.3-2.3,0.9s-1,1.4-1,2.3v27.4
				c0,0.6,0.2,1.1,0.5,1.6c0.3,0.5,0.7,0.9,1.2,1.2c0.5,0.3,1,0.4,1.6,0.4h29v10.3h-29.6c-4,0-7.5-1.4-10.4-4.3
				c-2.9-2.9-4.3-6.3-4.3-10.4V95.2z M577.8,102.5h26.1v10.4h-26.1V102.5z"/>
			<path class="st4" d="M655.4,134.9h-22.1h-7.5c-4,0-7.5-1.4-10.4-4.3c-2.9-2.9-4.3-6.3-4.3-10.4V80.5h12.1v40.9
				c0,0.9,0.3,1.6,1,2.3c0.6,0.6,1.4,0.9,2.3,0.9h28.9V134.9z"/>
		</g>
		<g>
			
				<linearGradient id="SVGID_00000030445528416005061090000004203261853410498434_" gradientUnits="userSpaceOnUse" x1="365.7835" y1="59.0913" x2="645.639" y2="161.5316">
				<stop  offset="0" style="stop-color:#EB5626"/>
				<stop  offset="1" style="stop-color:#9F0257"/>
			</linearGradient>
			<path style="fill:url(#SVGID_00000030445528416005061090000004203261853410498434_);" d="M357.9,80.5h44.2v10.3h-16.1v44.1H374
				V90.8h-16.1V80.5z"/>
			
				<linearGradient id="SVGID_00000183927971686729860980000016335491609535212939_" gradientUnits="userSpaceOnUse" x1="365.7835" y1="59.0913" x2="645.639" y2="161.5316">
				<stop  offset="0" style="stop-color:#EB5626"/>
				<stop  offset="1" style="stop-color:#9F0257"/>
			</linearGradient>
			<path style="fill:url(#SVGID_00000183927971686729860980000016335491609535212939_);" d="M406.9,134.9V80.5h29.6
				c4,0,7.5,1.4,10.3,4.3c2.9,2.9,4.3,6.3,4.3,10.4v8.2c0,3.3-1,6.3-3.1,9c-2.1,2.7-4.7,4.4-7.9,5.2l11,17.3h-14.3l-10.9-16.9
				l-6.6-10.3h16.6c0.9,0,1.6-0.3,2.3-0.9s0.9-1.4,0.9-2.3V94c0-0.9-0.3-1.6-0.9-2.3s-1.4-0.9-2.3-0.9h-17v44.1H406.9z"/>
			
				<linearGradient id="SVGID_00000170269495871271346660000010492516738065616001_" gradientUnits="userSpaceOnUse" x1="365.7835" y1="59.0913" x2="645.639" y2="161.5316">
				<stop  offset="0" style="stop-color:#EB5626"/>
				<stop  offset="1" style="stop-color:#9F0257"/>
			</linearGradient>
			<path style="fill:url(#SVGID_00000170269495871271346660000010492516738065616001_);" d="M483.5,80.5c1.7,0,3.2,0.5,4.5,1.4
				c1.3,0.9,2.3,2.2,2.8,3.7l17.7,49.3h-12.8l-14.5-40.4l-14.5,40.4h-12.8l17.7-49.3c0.6-1.6,1.5-2.8,2.9-3.7
				c1.3-0.9,2.8-1.4,4.4-1.4H483.5z M476.8,124.6h8.7l3.7,10.3h-16.1L476.8,124.6z"/>
			
				<linearGradient id="SVGID_00000005967182712255055550000011986070327765408695_" gradientUnits="userSpaceOnUse" x1="365.7835" y1="59.0913" x2="645.639" y2="161.5316">
				<stop  offset="0" style="stop-color:#EB5626"/>
				<stop  offset="1" style="stop-color:#9F0257"/>
			</linearGradient>
			<path style="fill:url(#SVGID_00000005967182712255055550000011986070327765408695_);" d="M539.4,129.8c-0.5,1.6-1.5,2.8-2.8,3.7
				c-1.3,0.9-2.9,1.4-4.5,1.4h-4.7c-1.6,0-3.1-0.5-4.4-1.4c-1.3-0.9-2.3-2.2-2.9-3.7l-17.7-49.3h12.8l14.5,40.4l14.5-40.4h12.8
				L539.4,129.8z"/>
			
				<linearGradient id="SVGID_00000110449138533883623640000010110817486881335741_" gradientUnits="userSpaceOnUse" x1="365.7835" y1="59.0913" x2="645.639" y2="161.5316">
				<stop  offset="0" style="stop-color:#EB5626"/>
				<stop  offset="1" style="stop-color:#9F0257"/>
			</linearGradient>
			<path style="fill:url(#SVGID_00000110449138533883623640000010110817486881335741_);" d="M559.7,95.2c0-4,1.4-7.5,4.3-10.4
				s6.3-4.3,10.4-4.3h29.5v10.3H575c-0.9,0-1.6,0.3-2.3,0.9s-1,1.4-1,2.3v27.4c0,0.6,0.2,1.1,0.5,1.6c0.3,0.5,0.7,0.9,1.2,1.2
				c0.5,0.3,1,0.4,1.6,0.4h29v10.3h-29.6c-4,0-7.5-1.4-10.4-4.3c-2.9-2.9-4.3-6.3-4.3-10.4V95.2z M577.8,102.5h26.1v10.4h-26.1
				V102.5z"/>
			
				<linearGradient id="SVGID_00000065038525369420589290000001449253580805825178_" gradientUnits="userSpaceOnUse" x1="365.7835" y1="59.0913" x2="645.639" y2="161.5316">
				<stop  offset="0" style="stop-color:#EB5626"/>
				<stop  offset="1" style="stop-color:#9F0257"/>
			</linearGradient>
			<path style="fill:url(#SVGID_00000065038525369420589290000001449253580805825178_);" d="M655.4,134.9h-22.1h-7.5
				c-4,0-7.5-1.4-10.4-4.3c-2.9-2.9-4.3-6.3-4.3-10.4V80.5h12.1v40.9c0,0.9,0.3,1.6,1,2.3c0.6,0.6,1.4,0.9,2.3,0.9h28.9V134.9z"/>
		</g>
	</g>
</g>
</svg>
